<?xml version="1.0" encoding="UTF-8" standalone="no"?>
<!-- Created with Inkscape (http://www.inkscape.org/) -->

<svg
   width="109.36111mm"
   height="98.138199mm"
   viewBox="0 0 109.36111 98.138199"
   version="1.1"
   id="svg673"
   sodipodi:docname="logo.svg"
   inkscape:version="1.1.2 (0a00cf5339, 2022-02-04)"
   xmlns:inkscape="http://www.inkscape.org/namespaces/inkscape"
   xmlns:sodipodi="http://sodipodi.sourceforge.net/DTD/sodipodi-0.dtd"
   xmlns="http://www.w3.org/2000/svg"
   xmlns:svg="http://www.w3.org/2000/svg">
  <sodipodi:namedview
     id="namedview675"
     pagecolor="#ffffff"
     bordercolor="#666666"
     borderopacity="1.0"
     inkscape:pageshadow="2"
     inkscape:pageopacity="0.0"
     inkscape:pagecheckerboard="0"
     inkscape:document-units="mm"
     showgrid="false"
     fit-margin-top="0"
     fit-margin-left="0"
     fit-margin-right="0"
     fit-margin-bottom="0"
     inkscape:zoom="0.75187991"
     inkscape:cx="198.16994"
     inkscape:cy="393.01489"
     inkscape:window-width="1850"
     inkscape:window-height="1016"
     inkscape:window-x="70"
     inkscape:window-y="27"
     inkscape:window-maximized="1"
     inkscape:current-layer="layer1" />
  <defs
     id="defs670">
    <clipPath
       clipPathUnits="userSpaceOnUse"
       id="clipPath18">
      <path
         d="M 0,0 H 3100 V 2781.87 H 0 Z"
         id="path16" />
    </clipPath>
  </defs>
  <g
     inkscape:label="Layer 1"
     inkscape:groupmode="layer"
     id="layer1"
     transform="translate(-38.57181,-44.535162)">
    <g
       id="g14"
       clip-path="url(#clipPath18)"
       transform="matrix(0.03187234,0,0,-0.03300085,43.850246,139.5063)">
      <path
         d="m 321.117,807.488 c -0.328,56.383 -0.496,84.563 -0.824,140.942 47.781,-8.918 71.672,-13.141 119.535,-21.16 0.414,-54.309 0.578,-81.43 0.992,-135.739 -47.949,6.039 -71.836,9.258 -119.703,15.957 z M 649.059,519.719 c -0.25,27.781 -0.332,41.672 -0.664,69.441 -0.825,16.449 -2.809,32.238 -5.868,47.371 -3.058,15.129 -12.566,29.598 -26.867,43.731 -11.16,10.91 -22.402,19.429 -33.808,24.136 -11.493,4.711 -20.09,8.024 -25.961,9.844 -2.231,0.828 -4.629,1.567 -7.192,2.067 -2.562,0.57 -5.371,1.652 -8.265,3.14 27.031,4.961 48.113,12.153 63.074,21.821 14.965,9.589 26.125,21.16 33.316,34.718 7.274,13.563 11.324,29.024 12.235,46.543 0.992,17.528 1.32,36.949 1.156,58.199 -0.082,10.911 -0.578,21.989 -1.406,32.981 -0.825,11.078 -2.727,21.828 -5.786,32.328 -3.058,10.492 -7.687,20.75 -14.054,30.91 -6.281,10.172 -15.043,20.172 -26.121,30.091 -19.922,17.53 -42.243,30.34 -66.797,38.2 -24.633,7.85 -49.352,14.46 -74.235,19.59 -135.324,27.77 -269.41,61.92 -402.1715,100.11 19.4258,-70.6 29.2657,-105.24 48.9375,-173.268 0.164,-148.883 0.332,-297.852 0.496,-446.731 C 89.4063,482.281 79.4844,450.449 59.6445,385.559 H 323.516 c -0.578,96.3 -1.075,192.691 -1.653,289 47.946,-4.547 71.918,-6.778 119.95,-10.911 0.578,-82.918 0.91,-124.418 1.488,-207.328 0.082,-14.879 1.32,-25.711 3.554,-32.57 2.231,-6.781 6.696,-13.059 13.391,-18.93 8.93,-9.101 20.5,-14.468 34.887,-16.449 14.383,-1.902 34.39,-2.812 60.18,-2.812 h 146.816 c -21.246,52.992 -31.824,79.773 -53.07,134.16"
         style="fill:#364c88;fill-opacity:1;fill-rule:nonzero;stroke:none"
         id="path20" />
      <path
         d="m 1309.98,504.762 c -0.5,106.23 -0.91,212.539 -1.33,318.758 -22.07,13.402 -39.34,21.082 -74.15,34.152 -12.07,4.457 -26.78,9.828 -49.1,17.848 -26.62,9.589 -58.28,22.07 -91.76,37.949 0.41,-56.629 0.66,-99.539 1.16,-168.809 -43.9,2.309 -65.81,3.551 -109.702,6.449 -0.66,74.891 -1.243,149.789 -1.821,224.692 -0.082,2.39 -0.082,4.789 -0.082,7.187 -4.05,0.41 -8.183,0.821 -12.234,1.321 -84.152,9.011 -167.731,21.001 -251.391,33.481 20.75,-55.88 31.168,-83.411 52,-137.802 1.157,-121.437 2.231,-242.957 3.305,-364.398 -19.84,-51.418 -29.758,-77.379 -49.516,-130.031 h 262.715 c -0.664,80.101 -1.324,160.203 -1.984,240.312 43.81,-1.902 65.72,-2.73 109.62,-4.223 0.57,-78.699 1.07,-157.398 1.65,-236.089 h 263.87 c -20.5,47.531 -30.75,71.339 -51.25,119.203"
         style="fill:#364c88;fill-opacity:1;fill-rule:nonzero;stroke:none"
         id="path22" />
      <path
         d="m 1705.62,385.559 c -20.17,47.453 -30.26,71.089 -50.51,118.293 0.17,94.078 0.33,187.988 0.5,281.98 -30.09,-6.953 -60.43,-11.082 -90.36,-14.062 -33.15,-3.301 -47.94,-11.399 -61.01,-18.508 -11.32,-6.203 -24.05,-13.153 -41.91,-13.153 -6.78,0 -13.72,1 -21.24,3.231 0.16,-79.781 0.33,-159.629 0.49,-239.488 -20.25,-47.204 -30.42,-70.84 -50.59,-118.293 h 314.63"
         style="fill:#364c88;fill-opacity:1;fill-rule:nonzero;stroke:none"
         id="path24" />
      <path
         d="m 2395.8,888.25 c 20.84,55.469 31.17,83.582 52,140.54 -79.28,-13.64 -159.13,-25.47 -238.91,-35.142 l 3.48,-355.378 c -70.93,112.339 -144.34,223.031 -218.99,332.98 -30.58,-2.559 -61.25,-4.961 -92.01,-6.941 -18.1,-25.797 -35.13,-48.7 -50.42,-65.887 -19.26,-21.742 -39.52,-39.684 -60.51,-54.481 0.66,-1.57 1.32,-3.222 2.06,-4.871 -0.41,-111.441 -0.91,-222.789 -1.4,-334.23 -20.5,-47.942 -30.75,-71.75 -51.26,-119.281 h 240.65 c -1.74,113.082 -3.56,226.25 -5.38,339.339 C 2049.68,612.969 2123,500.051 2193.6,385.559 h 248.41 c -19.84,53.562 -29.76,79.933 -49.6,132.183 1.16,123.496 2.24,247.008 3.39,370.508"
         style="fill:#364c88;fill-opacity:1;fill-rule:nonzero;stroke:none"
         id="path26" />
      <path
         d="m 2827.99,536.09 c -46.3,-2.309 -69.36,-3.469 -115.66,-5.621 0.91,135.41 1.74,270.82 2.65,406.222 46.05,8.188 69.11,12.399 114.99,21.418 -0.66,-140.699 -1.32,-281.32 -1.98,-422.019 z m 210.71,466.16 c -1.07,17.44 -2.89,32.82 -5.45,46.13 -2.48,13.31 -6.29,24.63 -11.33,33.97 -5.04,9.26 -11.57,17.61 -19.51,24.97 -7.93,7.27 -16.61,12.73 -26.04,16.28 -9.34,3.64 -20.42,5.29 -33.06,5.13 -12.65,-0.25 -27.37,-1.82 -43.98,-4.8 -16.7,-2.89 -36.29,-7.27 -58.78,-12.89 -60.68,-15.05 -91.02,-22.16 -151.94,-35.47 -26.37,-5.7 -52.33,-12.81 -77.96,-21.16 -25.62,-8.35 -48.11,-23.31 -67.37,-44.8 -10.33,-11.251 -18.1,-22.981 -23.31,-35.219 -5.29,-12.321 -9.26,-24.719 -11.9,-37.121 -2.65,-12.481 -4.3,-25.04 -4.72,-37.688 -0.49,-12.73 -0.82,-24.973 -0.91,-36.621 -0.91,-106.731 -1.9,-213.449 -2.81,-320.172 0.58,-21.5 2.24,-41.828 4.96,-60.84 2.81,-19.097 12.57,-37.117 29.35,-54.32 10.25,-9.918 22.15,-17.598 35.71,-23.231 13.56,-5.527 27.86,-9.828 42.91,-12.636 15.04,-2.813 30.33,-4.633 45.79,-5.211 15.46,-0.66 30.18,-0.992 44.15,-0.992 h 142.43 c 22.82,0 46.71,1.32 71.76,4.211 25.04,2.812 47.12,11.492 66.3,26.039 15.37,11.742 27.03,25.711 34.72,42 7.77,16.281 13.3,33.48 16.61,51.66 3.23,18.113 5.13,36.621 5.46,55.39 0.41,18.852 0.58,36.7 0.58,53.653 v 323.476 c 0,22.731 -0.58,42.903 -1.66,60.262"
         style="fill:#364c88;fill-opacity:1;fill-rule:nonzero;stroke:none"
         id="path28" />
      <path
         d="M 87.543,151.281 107.715,99.1992 V 52.082 H 69.1094 v 145.91 h 38.6056 l 62,-20.84 V 250.07 H 62 C 53.7344,250.309 45.3828,249.98 36.8672,248.992 28.3555,248.082 20.832,244.691 14.2188,238.738 10.6641,235.43 7.9375,231.879 6.03516,227.91 4.13281,224.031 2.72656,219.891 1.82031,215.512 0.828125,211.211 0.332031,206.75 0.164063,202.281 0.0820313,197.82 0,193.27 0,188.809 V 59.1914 C 0,54.6406 0.0820313,50.2617 0.164063,45.8789 0.332031,41.5 0.910156,37.2813 1.98438,33.1484 3.05859,29.0195 4.54688,25.0508 6.61328,21.2422 8.59766,17.5195 11.5742,14.0508 15.625,10.9883 18.6836,8.60156 22.7344,6.35938 27.8594,4.30078 32.9023,2.15234 39.8438,0.832031 48.5234,0.410156 50.4258,0.160156 52.3281,0 54.2305,0 H 172.523 v 151.281 h -84.98"
         style="fill:#040606;fill-opacity:1;fill-rule:nonzero;stroke:none"
         id="path30" />
      <path
         d="m 348.938,104.16 15.953,104.82 15.543,-104.82 z M 454.5,52.082 419.449,250.07 H 310.66 L 276.273,52.082 257.922,0 h 77.211 l 8.512,60.9219 h 42.078 L 394.652,0 h 76.797 L 454.5,52.082"
         style="fill:#040606;fill-opacity:1;fill-rule:nonzero;stroke:none"
         id="path32" />
      <path
         d="m 671.254,148.391 h -38.606 v 49.601 h 38.606 z m 66.215,-96.309 v 26.9493 c -0.246,6.3593 -0.824,12.3984 -1.735,18.1796 -0.992,5.7891 -3.804,11.1601 -8.515,16.1211 -3.555,4.059 -7.192,6.777 -10.828,8.188 -3.637,1.402 -6.45,2.312 -8.27,2.812 -0.742,0.25 -1.484,0.406 -2.312,0.578 -0.829,0.082 -1.739,0.41 -2.645,0.82 8.68,2.899 15.457,6.372 20.332,10.668 4.797,4.211 8.434,9.172 10.832,14.711 2.317,5.539 3.719,11.743 4.051,18.602 0.332,6.781 0.496,14.391 0.496,22.648 0,4.223 -0.082,8.52 -0.332,12.731 -0.246,4.219 -0.824,8.351 -1.734,12.242 -0.993,3.887 -2.481,7.598 -4.465,11.16 -1.985,3.547 -4.793,6.86 -8.352,9.918 -6.363,5.461 -13.472,8.762 -21.406,9.922 -7.938,1.156 -15.875,1.738 -23.895,1.738 H 547.996 l 15.957,-52.078 V 52.082 L 547.996,0 h 84.652 v 101.68 h 38.606 V 25.8711 c 0,-5.4492 0.332,-9.4219 1.074,-11.9023 0.66,-2.4766 2.067,-4.70708 4.215,-6.85942 2.812,-3.3086 6.531,-5.28907 11.16,-6.03907 C 692.332,0.410156 698.781,0 707.047,0 h 47.121 l -16.699,52.082"
         style="fill:#040606;fill-opacity:1;fill-rule:nonzero;stroke:none"
         id="path34" />
      <path
         d="m 918.508,104.16 15.875,104.82 15.621,-104.82 z M 1024.07,52.082 988.941,250.07 H 880.234 L 845.844,52.082 827.41,0 h 77.293 l 8.434,60.9219 h 42.16 L 964.141,0 h 76.879 l -16.95,52.082"
         style="fill:#040606;fill-opacity:1;fill-rule:nonzero;stroke:none"
         id="path36" />
      <path
         d="m 1211.73,151.281 20.25,-52.0818 V 52.082 h -38.6 v 145.91 h 38.6 l 62,-20.84 v 72.918 h -107.71 c -8.27,0.239 -16.62,-0.09 -25.13,-1.078 -8.52,-0.91 -16.12,-4.301 -22.74,-10.254 -3.47,-3.308 -6.2,-6.859 -8.1,-10.828 -1.9,-3.879 -3.31,-8.019 -4.21,-12.398 -1,-4.301 -1.49,-8.762 -1.66,-13.231 -0.08,-4.461 -0.16,-9.011 -0.16,-13.472 V 59.1914 c 0,-4.5508 0.08,-8.9297 0.16,-13.3125 0.17,-4.3789 0.75,-8.5976 1.82,-12.7305 1.08,-4.1289 2.56,-8.0976 4.55,-11.9062 2.06,-3.7227 5.04,-7.1914 9.09,-10.2539 3.06,-2.38674 7.11,-4.62892 12.15,-6.68752 5.13,-2.14844 11.99,-3.468749 20.75,-3.890624 C 1174.69,0.160156 1176.59,0 1178.5,0 h 118.29 v 151.281 h -85.06"
         style="fill:#040606;fill-opacity:1;fill-rule:nonzero;stroke:none"
         id="path38" />
      <path
         d="m 1506.43,52.082 h -36.12 v 52.406 h 51 v 46.043 h -51 v 47.461 h 36.12 l 57.04,-29.762 v 81.84 h -176.41 l 16.29,-52.078 V 52.082 L 1387.06,0 h 180.3 V 84.3203 L 1506.43,52.082"
         style="fill:#040606;fill-opacity:1;fill-rule:nonzero;stroke:none"
         id="path40" />
      <path
         d="m 1937.54,52.082 h -36.87 v 145.91 h 36.87 z m 67.62,147.387 c -0.25,4.961 -0.82,9.84 -1.73,14.64 -1,4.871 -2.57,9.5 -4.8,13.801 -2.23,4.379 -5.29,8.27 -9.01,11.57 -6.61,5.379 -14.05,8.52 -22.32,9.352 -8.27,0.816 -16.2,1.238 -23.72,1.238 h -126.82 l 15.96,-52.078 V 52.082 L 1816.76,0 h 128.22 c 4.47,0 9.01,0.160156 13.64,0.410156 4.55,0.171875 9.01,0.832034 13.23,1.898434 4.3,1.08204 8.35,2.65235 12.23,4.80079 3.89,2.15234 7.44,5.21092 10.5,9.17192 5.21,7.1093 8.27,15.3789 9.34,24.8007 1.08,9.4297 1.66,18.4375 1.66,26.9493 V 184.922 c 0,4.719 -0.17,9.59 -0.42,14.547"
         style="fill:#040606;fill-opacity:1;fill-rule:nonzero;stroke:none"
         id="path42" />
      <path
         d="m 2207.45,52.082 h -37.2 v 145.91 h 37.2 z m 67.78,145.91 c -0.33,5.699 -0.9,10.738 -1.73,15.289 -0.83,4.461 -2.07,8.43 -3.72,11.821 -1.65,3.468 -3.8,6.699 -6.37,9.75 -2.64,3.058 -5.45,5.628 -8.51,7.609 -3.06,1.98 -6.7,3.551 -10.83,4.629 -4.13,1.07 -8.93,1.82 -14.3,2.308 -5.46,0.422 -11.82,0.672 -19.18,0.672 h -49.19 c -8.51,0 -16.86,-0.582 -25.13,-1.738 -8.26,-1.16 -15.54,-5.211 -21.66,-12.07 -3.3,-3.551 -5.78,-7.524 -7.44,-11.821 -1.65,-4.382 -2.89,-8.929 -3.72,-13.48 -0.82,-4.629 -1.24,-9.34 -1.4,-14.211 -0.08,-4.801 -0.17,-9.512 -0.17,-13.98 V 60.2617 c 0.25,-8.2617 0.83,-16.1211 1.74,-23.3906 0.99,-7.3594 4.13,-14.3008 9.59,-20.9219 3.3,-3.7969 7.11,-6.68748 11.49,-8.83982 4.38,-2.14844 9.01,-3.71875 13.8,-4.80079 4.88,-1.0664 9.76,-1.726559 14.72,-1.898434 C 2158.18,0.160156 2162.89,0 2167.44,0 h 45.63 c 7.36,0 15.04,0.492188 23.06,1.39844 8.02,1 15.13,3.8125 21.25,8.52344 4.96,3.79692 8.68,8.26952 11.16,13.46872 2.48,5.211 4.21,10.668 5.29,16.4492 1.07,5.7891 1.65,11.7422 1.82,17.6915 0.08,6.039 0.16,11.8281 0.16,17.1992 V 178.559 c 0,7.273 -0.16,13.8 -0.58,19.433"
         style="fill:#040606;fill-opacity:1;fill-rule:nonzero;stroke:none"
         id="path44" />
      <path
         d="m 2477.35,52.082 h -37.2 v 145.91 h 37.2 z m 67.79,145.91 c -0.33,5.699 -0.91,10.738 -1.73,15.289 -0.83,4.461 -2.07,8.43 -3.72,11.821 -1.66,3.468 -3.81,6.699 -6.37,9.75 -2.65,3.058 -5.46,5.628 -8.51,7.609 -3.06,1.98 -6.7,3.551 -10.83,4.629 -4.14,1.07 -8.93,1.82 -14.31,2.308 -5.45,0.422 -11.82,0.672 -19.17,0.672 h -49.19 c -8.52,0 -16.86,-0.582 -25.13,-1.738 -8.27,-1.16 -15.54,-5.211 -21.66,-12.07 -3.31,-3.551 -5.79,-7.524 -7.44,-11.821 -1.65,-4.382 -2.89,-8.929 -3.72,-13.48 -0.83,-4.629 -1.24,-9.34 -1.41,-14.211 -0.08,-4.801 -0.16,-9.512 -0.16,-13.98 V 60.2617 c 0.25,-8.2617 0.83,-16.1211 1.74,-23.3906 0.99,-7.3594 4.13,-14.3008 9.58,-20.9219 3.31,-3.7969 7.11,-6.68748 11.5,-8.83982 4.38,-2.14844 9.01,-3.71875 13.8,-4.80079 4.88,-1.0664 9.75,-1.726559 14.72,-1.898434 C 2428.09,0.160156 2432.8,0 2437.34,0 h 45.64 c 7.35,0 15.04,0.492188 23.06,1.39844 8.02,1 15.13,3.8125 21.25,8.52344 4.96,3.79692 8.67,8.26952 11.16,13.46872 2.48,5.211 4.21,10.668 5.29,16.4492 1.07,5.7891 1.65,11.7422 1.81,17.6915 0.09,6.039 0.17,11.8281 0.17,17.1992 V 178.559 c 0,7.273 -0.17,13.8 -0.58,19.433"
         style="fill:#040606;fill-opacity:1;fill-rule:nonzero;stroke:none"
         id="path46" />
      <path
         d="m 2757.51,148.391 h -38.6 v 49.601 h 38.6 z m 66.22,-96.309 v 26.9493 c -0.25,6.3593 -0.83,12.3984 -1.74,18.1796 -0.99,5.7891 -3.8,11.1601 -8.51,16.1211 -3.56,4.059 -7.11,6.777 -10.83,8.188 -3.64,1.402 -6.37,2.312 -8.27,2.812 -0.74,0.25 -1.49,0.406 -2.31,0.578 -0.83,0.082 -1.74,0.41 -2.65,0.82 8.68,2.899 15.46,6.372 20.34,10.668 4.87,4.211 8.43,9.172 10.83,14.711 2.31,5.539 3.72,11.743 4.05,18.602 0.33,6.781 0.49,14.391 0.49,22.648 0,4.223 -0.08,8.52 -0.33,12.731 -0.25,4.219 -0.82,8.351 -1.73,12.242 -1,3.887 -2.48,7.598 -4.47,11.16 -1.98,3.547 -4.79,6.86 -8.35,9.918 -6.36,5.461 -13.47,8.762 -21.41,9.922 -7.85,1.156 -15.87,1.738 -23.89,1.738 h -130.69 l 15.95,-52.078 V 52.082 L 2634.26,0 h 84.65 v 101.68 h 38.6 V 25.8711 c 0,-5.4492 0.33,-9.4219 1.08,-11.9023 0.66,-2.4766 2.15,-4.70708 4.21,-6.85942 2.9,-3.3086 6.62,-5.28907 11.16,-6.03907 C 2778.59,0.410156 2785.04,0 2793.31,0 h 47.12 l -16.7,52.082"
         style="fill:#040606;fill-opacity:1;fill-rule:nonzero;stroke:none"
         id="path48" />
      <path
         d="m 3099.17,115.48 c -0.66,5.711 -2.56,11.079 -5.87,16.29 -2.81,4.96 -6.36,8.761 -10.66,11.32 -4.22,2.648 -8.35,4.551 -12.4,5.871 -3.97,1.328 -7.61,2.148 -10.91,2.48 -3.31,0.329 -5.71,0.5 -7.11,0.5 -2.15,0.25 -4.3,0.411 -6.37,0.411 h -51.75 v 45.64 h 37.95 l 60.51,-21.25 v 73.328 h -110.11 c -8.27,0 -16.45,-0.75 -24.47,-2.32 -8.02,-1.488 -15.13,-5.789 -21.25,-12.898 -4.71,-5.454 -7.6,-11.071 -8.68,-17.02 -1.07,-5.871 -1.82,-12.402 -2.31,-19.43 v -41.504 c 0.49,-6.859 1.16,-13.226 1.98,-19.097 0.83,-5.871 3.31,-11.653 7.61,-17.36 3.06,-4.05 6.36,-7.109 9.92,-9.421 3.55,-2.231 7.02,-3.969 10.41,-5.29 3.48,-1.32 6.62,-2.07 9.43,-2.48 2.81,-0.328 4.96,-0.5 6.36,-0.5 1.9,0 3.64,-0.078 5.29,-0.16 1.66,-0.168 3.48,-0.25 5.29,-0.25 h 50.02 V 52.082 h -37.95 l -64.81,24.4688 V 0 h 122.76 c 5.05,0 10.58,0.910156 16.45,2.64063 5.87,1.82031 11.58,4.96093 17.03,9.42967 5.38,4.461 9.43,11.0781 11.99,19.8399 1.24,4.2109 1.9,8.5117 2.15,12.8906 0.25,4.3906 0.33,8.6797 0.33,12.9805 v 40.3398 c 0,5.8709 -0.25,11.6599 -0.83,17.3589"
         style="fill:#040606;fill-opacity:1;fill-rule:nonzero;stroke:none"
         id="path50" />
      <path
         d="m 3096.52,1005.87 c -1.2,19.9 -3.4,37.8 -6.4,53.3 -3.6,19.2 -9.5,36.3 -17.3,50.8 -8.1,15 -18.6,28.3 -31.2,39.9 -13.3,12.3 -28.4,21.6 -44.6,27.8 -15.4,6 -32.9,8.9 -51.8,8.9 h -2.6 c -15.8,-0.2 -33.3,-2 -53.4,-5.6 -17.4,-3.1 -37.9,-7.6 -62.7,-13.7 -60.2,-15.1 -89.6,-21.9 -150.3,-35.2 -27.7,-6 -55.8,-13.6 -83.4,-22.6 -33.9,-11 -64,-30.5 -89.4,-57.9 -0.8,-0.1 -1.5,-0.2 -2.2,-0.4 -2.2,5.3 -5.3,10.3 -9,14.7 -11.1,13.3 -27.2,20.8 -44.4,20.9 -3.3,0 -6.6,-0.4 -9.8,-0.9 -50.8,-8.8 -102.1,-16.8 -153.3,-24 -22.8,-13.9 -44.7,-24.8 -64.5,-33.5 74,9.2 148.6,20.4 222,33.1 1.8,0.3 3.7,0.5 5.6,0.5 9.7,-0.1 19,-4.3 25.4,-11.9 6.4,-7.8 9,-18.1 7,-27.8 12,2.1 24,4.3 35.9,6.5 0.9,1 1.8,2.1 2.8,3.1 23.1,25.8 50.5,44 81.5,54 26.9,8.7 54.2,16.2 81.1,22 60.9,13.3 90.5,20.2 151,35.3 24.2,6 44.2,10.4 61,13.3 18.8,3.3 34.9,5.1 49.3,5.3 h 2.4 c 15.9,0 30.3,-2.5 43,-7.2 13.3,-5.1 25.6,-12.9 36.6,-22.9 10.5,-9.8 19.4,-21 26.1,-33.5 6.7,-12.3 11.7,-26.9 14.8,-43.6 2.8,-14.5 4.8,-31.5 6,-50.3 1.1,-18 1.7,-39 1.7,-62.301 v -323.5 c 0,-17.297 -0.2,-35.598 -0.6,-54.199 -0.4,-20.598 -2.3,-41 -6,-60.7 -3.8,-21 -10.2,-41.101 -19.2,-60 -10,-21 -25,-39.199 -44.6,-54 -23.8,-18.101 -51.6,-29.101 -82.6,-32.601 -25.9,-3 -51.2,-4.5 -75.5,-4.5 h -142.4 c -14.1,0 -29.4,0.402 -45.5,1 -16.8,0.703 -33.9,2.703 -50.6,5.801 -17.1,3.199 -33.7,8.101 -49.3,14.5 -11.4,4.8 -22.2,10.8 -31.9,18.199 h -50.8 c 1.8,-8.699 -0.1,-17.899 -5.3,-25.297 -6.2,-8.902 -16.3,-14.203 -27.1,-14.203 h -248.4 c -11.5,0 -22.1,6 -28.2,15.703 -4.9,8 -9.8,15.797 -14.8,23.797 h -137.1 l 0.1,-5.899 c 0.1,-8.898 -3.3,-17.398 -9.5,-23.699 -6.2,-6.301 -14.7,-9.902 -23.6,-9.902 h -240.7 c -6.1,0 -11.9,1.703 -17.1,4.801 -5,-3.098 -11,-4.801 -17.1,-4.801 h -314.6 c -5.2,0 -10.3,1.301 -14.9,3.601 -4.5,-2.3 -9.7,-3.601 -14.9,-3.601 h -263.8 c -18.2,0 -32.9,14.703 -33.1,32.801 v 6.699 h -43.2 v -6.199 c 0.1,-8.801 -3.3,-17.2 -9.5,-23.5 -6.2,-6.301 -14.698,-9.801 -23.499,-9.801 H 725.422 c -4.102,0 -8,0.801 -11.703,2.101 -3.598,-1.3 -7.5,-2.101 -11.598,-2.101 H 555.32 c -27.5,0 -48.699,1 -64.5,3.203 -21.398,2.898 -39.3,11.297 -53.3,25.098 -3.899,3.5 -7.399,7.3 -10.399,11.199 H 356.52 l 0.101,-6.199 c 0,-8.801 -3.5,-17.301 -9.699,-23.5 -6.203,-6.301 -14.602,-9.801 -23.402,-9.801 H 59.6211 c -10.5,0 -20.3008,5 -26.6016,13.402 -6.1992,8.399 -8.0976,19.399 -5,29.399 19.4024,63.3 29.1993,94.601 48,154.699 l -0.5,437 c -19.1992,66.301 -28.6992,100.401 -47.8007,169.201 -3.0977,11.5 0.2031,23.9 8.7031,32.3 6.2969,6.2 14.6992,9.5 23.1992,9.5 3.0977,0 6.1992,-0.4 9.1992,-1.2 141.4997,-40.8 272.1997,-73.3 399.8007,-99.5 25.5,-5.4 51.699,-12.3 77.5,-20.5 28.699,-9.2 55.199,-24.3 78.801,-45.1 3.098,-2.7 6.098,-5.5 8.898,-8.3 17.2,-3.1 34.899,-6.1 52.899,-9 -0.899,8.6 1.5,17.3 7.203,24.3 6.199,7.7 15.797,12.2 25.598,12.2 1.601,0 3.3,-0.1 4.902,-0.3 63.5,-9.5 130.297,-19.2 198.297,-27.5 -10.098,9.2 -19.797,18.7 -28.899,28.6 -56.699,7.3 -112.398,15.4 -165.8,23.3 -2.801,0.4 -5.598,0.7 -8.5,0.7 -17.5,0 -33.899,-7.9 -44.899,-21.4 -3,-3.7 -5.402,-7.5 -7.402,-11.5 -7.199,1.1 -14.5,2.4 -21.699,3.7 -1.301,1.2 -2.7,2.5 -4.098,3.7 -26.203,23.2 -55.703,40 -87.703,50.2 -26.699,8.5 -53.598,15.6 -80.098,21.2 -126.902,26 -257.101,58.4 -397.9022,99 -5.1993,1.5 -10.6993,2.2 -16.0977,2.2 -15.3008,0 -29.6992,-5.9 -40.6016,-16.7 -14.89841,-14.7 -20.69919,-36.3 -15.19919,-56.5 18.69919,-67.6 28.60159,-102.5 46.89849,-166.199 l 0.5,-429.601 c -18,-57.301 -27.8008,-89.2 -46.89849,-151.301 -5.300779,-17.5 -2,-36.699 8.80079,-51.297 10.8984,-14.703 28.3008,-23.5 46.5,-23.5 H 323.52 c 15.3,0 30.3,6.199 41,17 6.3,6.398 11,14.098 13.8,22.5 h 37.602 c 1.5,-1.5 3,-3 4.598,-4.402 17.8,-17.5 40.3,-28.098 66.902,-31.7 17.098,-2.3 39.199,-3.398 67.898,-3.398 h 146.801 c 4,0 7.899,0.398 11.598,1.199 3.801,-0.801 7.703,-1.199 11.703,-1.199 h 262.699 c 15.299,0 30.199,6.199 41.099,17.098 6.1,6.101 10.7,13.699 13.5,21.8 7.9,-22.601 29.4,-38.898 54.7,-38.898 h 263.8 c 5,0 10,0.699 14.9,2 4.9,-1.301 9.9,-2 14.9,-2 h 314.6 c 5.9,0 11.6,0.797 17.1,2.598 5.6,-1.801 11.4,-2.598 17.1,-2.598 h 240.7 c 15.4,0 30.5,6.297 41.2,17.297 6.2,6.301 10.9,13.902 13.7,22.203 h 101.5 c 2.5,-4 5,-8 7.4,-12 10.5,-17 29.4,-27.5 49.3,-27.5 h 248.4 c 18.9,0 36.6,9.297 47.5,24.797 3.1,4.601 5.6,9.402 7.3,14.703 h 20.5 c 9.5,-6.402 19.7,-11.902 30.3,-16.301 17.3,-7.101 35.5,-12.402 54.3,-16 17.9,-3.402 36,-5.402 54.1,-6.199 16.4,-0.602 32,-1 46.5,-1 h 142.4 c 25.2,0 51.5,1.598 78.3,4.598 35.5,4 67.4,16.699 94.8,37.5 22.8,17.402 40.3,38.601 52,63.199 9.9,20.801 17,43 21.2,66.203 3.9,21 6,42.699 6.4,64.598 0.4,18.8 0.6,37.199 0.6,54.699 v 323.5 c 0,23.801 -0.6,45.402 -1.7,63.901"
         style="fill:#040606;fill-opacity:1;fill-rule:nonzero;stroke:none"
         id="path52" />
      <path
         d="m 2420.47,1282.28 c -2.02,11.06 -4.31,23.61 -6.01,40.17 -5.02,48 -17.31,84.31 -82.23,242.9 0,0 -0.12,0.29 -0.24,0.58 -64.56,157.72 -194.3,254.18 -200.02,258.36 -0.34,0.26 -0.69,0.56 -0.97,0.85 -1.84,1.92 -2.27,4.75 -1.14,7.16 l 11.41,23.91 c 0.1,0.19 0.2,0.38 0.3,0.57 3.07,5.01 6.41,9.72 9.94,14.02 1.06,1.34 2.33,2.85 3.85,4.5 15.47,17.03 47.74,52.46 29.77,104.94 -12.57,36.71 -36.76,60.44 -50.05,71.34 l -3.09,-92.05 c -0.26,-8.85 -7.68,-15.94 -16.53,-15.78 l -93.86,1.51 -0.22,0.01 c -4.27,0.12 -8.26,1.87 -11.24,4.94 -3.02,3.14 -4.64,7.29 -4.57,11.65 l 1.75,87.76 c -17.08,-10.31 -57.09,-42.92 -65.25,-118.53 -0.01,-0.16 -0.25,-2.08 -0.51,-5.25 -0.18,-1.91 -1.23,-3.68 -2.83,-4.76 -1.63,-1.07 -3.66,-1.37 -5.51,-0.77 -23.35,7.48 -47.96,17.17 -71.74,26.56 -36.46,14.4 -74.16,29.26 -107.95,36.33 -2.84,0.6 -4.95,3.03 -5.09,5.93 -0.17,2.89 1.64,5.56 4.39,6.44 35.45,11.61 60.35,10.85 83.24,-2.61 0.23,-0.1 0.45,-0.27 0.63,-0.41 4.29,-2.53 8.47,-5.47 12.83,-9.06 18.73,-11.83 26.17,-10.74 28.02,-10.11 0.94,0.32 2.02,0.96 2.85,3.08 0.04,0.23 0.11,0.42 0.21,0.61 0.1,0.29 0.18,0.57 0.25,0.89 0.18,0.7 0.36,1.34 0.54,1.94 0.1,0.39 0.21,0.73 0.32,1.08 0.07,0.29 0.14,0.54 0.24,0.8 15.52,53.88 16.92,99.79 4.65,148.84 -3.28,12.98 -9.47,23.97 -16.02,35.58 -2.2,3.85 -4.4,7.76 -6.53,11.77 -0.36,0.68 -0.6,1.39 -0.67,2.17 -3.48,25.75 -12.14,41.24 -31.98,57.11 -1.63,1.3 -2.54,3.32 -2.41,5.37 0.15,2.94 1.35,19.97 1.84,27.04 l 0.21,2.89 c 0.04,4.68 0.11,9 0.19,13.04 0.2,13.34 0.34,23.86 -0.27,37.05 l -0.2,4.11 c -0.55,10.89 -1.27,25.79 -2.74,34.95 -14.45,88.42 -42.68,145.69 -94.3,191.42 -8.16,7.22 -20.32,12.52 -31.61,17.18 0.54,-2.71 1.21,-6.04 2.08,-10.17 l 0.17,-0.77 c 13.91,-84.24 8.47,-154.45 -17.62,-227.78 -0.11,-0.35 -0.24,-0.63 -0.41,-0.95 -1.6,-2.93 -3.13,-5.9 -4.66,-8.87 -10.12,-19.53 -21.57,-41.71 -50.63,-42.82 -10.44,-0.4 -17.92,8.22 -23.81,15.15 -1.64,1.91 -3.19,3.75 -4.6,5.08 -1.31,1.26 -1.99,3.01 -1.94,4.83 2.21,64.88 -30.33,87.61 -71.5,116.35 -18.64,13.02 -37.95,26.47 -55.9,45.28 -9.4,9.8 -15.64,20.37 -21.66,30.58 -3.39,5.75 -6.91,11.68 -10.95,17.38 -1.66,2.33 -1.54,5.5 0.26,7.73 4.49,5.57 9.14,9.99 13.63,14.29 7.82,7.47 14.55,13.94 19.29,24.74 32.87,74.8 12.44,111.38 -45.71,165.09 -4,3.71 -8.67,7.4 -13.44,10.94 0.89,-3.29 1.94,-7.21 3.21,-11.9 0.72,-2.71 0.87,-3.23 0.88,-3.84 4.2,-44.15 -17.07,-59.96 -43.98,-79.92 l -5.28,-3.92 c -21.26,-17.57 -32.16,-33.9 -37.36,-56.23 -0.37,-1.53 -1.27,-2.88 -2.58,-3.8 -23.54,-16.41 -43.93,-28.17 -73.81,-17.9 -7.49,2.56 -14.4,6.38 -21.13,10.07 -7.61,4.17 -14.77,8.13 -22.41,10.21 -12.44,3.38 -24.32,5.1 -37.59,5.3 -1.76,0.11 -3.32,0.73 -4.5,1.96 -1.18,1.25 -1.84,2.9 -1.79,4.6 0.11,4.81 0.5,9.45 0.85,13.96 0.81,10.11 1.54,19.68 -0.57,29.71 -10.43,48.51 -33.07,83.75 -73.43,114.23 -10.39,7.87 -22.38,12.42 -35.1,17.28 -3.3,1.25 -6.66,2.54 -10.02,3.88 0.36,-0.81 0.69,-1.55 1.02,-2.33 2.44,-5.46 4.97,-11.11 7.81,-23.9 5.11,-22.79 -5.42,-66.1 -26.67,-88.64 -21.97,-48.53 -18.83,-85.21 11.35,-134.87 1.37,-2.29 1.19,-5.17 -0.44,-7.27 -108.117,-139.13 -163.903,-307.26 -156.996,-473.43 0.015,-3.88 0.097,-7.57 0.183,-11.23 0.043,-1.96 -0.812,-3.83 -2.359,-5.1 -14.653,-12.05 -27.942,-24.55 -40.625,-38.3 -19.719,-19.69 -37.121,-40.19 -51.875,-61.19 -23.219,-32.97 -40.524,-67.81 -51.375,-103.54 -10.778,-35.25 -15.469,-72.03 -13.895,-109.38 0.047,-1.66 -0.511,-3.28 -1.636,-4.53 -56.891,-63.71 -57.75,-204.77 -45.645,-262.63 31.816,-152.2 86.277,-210.52 188.938,-276.82 1.132,-0.7 1.968,-1.76 2.476,-2.99 55.692,-137.41 248.559,-219.451 328.889,-248.338 22.38,-8.023 37.14,-13.422 49.35,-17.98 47.34,-17.672 65.42,-26.692 101.86,-50.813 10.32,-6.809 21.86,-14.648 36.49,-24.609 l 14.75,-10.008 c 53.94,-36.563 61.79,-32.274 82.78,-20.793 14.66,8.012 34.71,18.973 75.65,23.043 104.67,10.488 188.76,33.707 258.9,113 17.13,19.34 37.33,47.25 59.09,78.738 43.64,4.11 269.68,28.02 374.65,90.7 116.46,69.55 162.37,51.88 164.66,104.88 0,0.01 0,0.01 0,0.02 2.26,4.4 4.13,9.68 5.59,16.05 4.08,28.1 1.29,43.39 -2.56,64.47"
         style="fill:#b4b5b4;fill-opacity:1;fill-rule:nonzero;stroke:none"
         id="path54" />
      <path
         d="m 1020.64,1518.11 -45.574,-42.44 c -24.242,-22.58 -49.769,-21.11 -70.433,-0.31 -20.567,20.68 -25.153,50.14 1.191,74.67 l 45.574,42.44 16.817,-18.06 -45.57,-42.44 c -14.571,-13.57 -14.543,-28.78 -1.586,-41.52 12.316,-11.61 24.953,-8.11 37.191,3.29 l 45.57,42.44 16.82,-18.07"
         style="fill:#364c88;fill-opacity:1;fill-rule:nonzero;stroke:none"
         id="path56" />
      <path
         d="m 1061.85,1434.61 c 0.54,9 -4.74,18.87 -10.71,25.29 -7.49,8.05 -16.95,11.42 -22.55,6.21 -7.46,-6.95 -2.23,-15.37 6.61,-26.72 13.57,-17.38 21.62,-38.41 2.74,-55.99 -18.18,-16.94 -41.749,-7.53 -58.245,9.96 -13.254,14 -21.453,33.78 -16.441,51.3 l 21.402,-0.32 c -2.179,-13.78 3.985,-27.41 11.684,-35.68 9.02,-9.67 19.04,-12.74 24.88,-7.31 6.98,6.29 5.04,14.68 -4.34,26.63 -14.45,18.79 -24.454,38.17 -5.01,55.85 16.32,14.97 39.26,7.62 54.89,-9.15 11.73,-12.6 17.72,-24.65 15.74,-42.15 l -20.65,2.08"
         style="fill:#364c88;fill-opacity:1;fill-rule:nonzero;stroke:none"
         id="path58" />
      <path
         d="m 1148.76,1330.77 -55.16,-4.35 -3.03,3.26 9.24,54.12 -57,-53.08 -16.93,18.18 81.59,75.98 c 6.41,-6.88 13.03,-13.99 19.43,-20.86 l -9.21,-52.98 53.61,5.31 19.21,-20.64 -81.59,-75.98 -16.93,18.17 56.77,52.87"
         style="fill:#364c88;fill-opacity:1;fill-rule:nonzero;stroke:none"
         id="path60" />
      <path
         d="m 1201.32,1180.61 c -16.09,0.68 -29.91,8.05 -41.2,20.17 -28.99,31.13 -20.45,62.15 1.72,82.99 20.98,19.77 55.93,26.64 83.83,-3.32 10.42,-11.19 15.77,-25.57 15.3,-41.67 l -21.93,0.88 c 0.21,9.36 -4.43,18.32 -10.51,24.84 -17.26,18.53 -38.32,12.42 -50.1,1.22 -11.78,-11.19 -19.33,-30.2 -1.53,-49.31 6.07,-6.52 17.02,-12.43 26.48,-12.76 l -2.06,-23.04"
         style="fill:#364c88;fill-opacity:1;fill-rule:nonzero;stroke:none"
         id="path62" />
      <path
         d="m 1342.02,2277.1 c 1.37,27.25 19.11,46.59 46.36,41.49 27.24,-5.1 39.67,-19.88 47.82,-44.28 -34.14,-13.35 -62.11,-16.58 -94.18,2.79"
         style="fill:#ffffff;fill-opacity:1;fill-rule:nonzero;stroke:none"
         id="path64" />
      <path
         d="m 1344.31,2058.88 c -9.53,64.19 -3.1,88.74 74.21,88.2 77.32,-0.54 128.7,-89.1 211.56,-104.06 -26.28,-14.74 -18.34,-5.76 -52.97,-23.3 -34.63,-17.53 -40.83,-16.33 -95.66,-58.75 -54.84,-42.42 -166.3,-12.57 -137.14,97.91"
         style="fill:#ffffff;fill-opacity:1;fill-rule:nonzero;stroke:none"
         id="path66" />
      <path
         d="m 1127.23,2572.11 c 4.26,19.91 8.33,28.3 8.99,46.76 -8.48,-7.63 -17.26,-14.26 -25.9,-21.48 6.94,13.25 13.76,26.47 20.63,39.72 -6.59,-6.15 -13.22,-12.27 -19.81,-18.43 8.42,25.97 6.91,44.93 -9.44,67.71 2.24,-35.84 -11.35,-49.31 -24.07,-83.73 -12.37,-33.42 42.63,-70.4 66.42,-90.59 -9.72,15.36 -20.35,43.38 -16.82,60.04"
         style="fill:#040606;fill-opacity:1;fill-rule:nonzero;stroke:none"
         id="path68" />
      <path
         d="m 1776.92,2071.07 c 34.33,16.72 23.44,29.4 61.05,5.86 -31.99,35.25 -57.17,73.46 -107.46,40.39 -50.27,-33.07 12.08,-62.91 46.41,-46.25"
         style="fill:#040606;fill-opacity:1;fill-rule:nonzero;stroke:none"
         id="path70" />
      <path
         d="m 1289.16,2288.59 c 6.15,59.34 21.86,76.98 79.54,93.01 -11.01,9.28 -22.34,10.67 -36,8.49 -0.16,27.73 -3,43.2 -28.43,60.33 -25.37,17.19 -54.33,26.37 -55.91,63.54 -8.14,-42.94 1.86,-53.7 28.99,-89.13 27.14,-35.4 9.53,-92.58 11.81,-136.24"
         style="fill:#040606;fill-opacity:1;fill-rule:nonzero;stroke:none"
         id="path72" />
      <path
         d="m 1152.54,2162.38 c -19.03,-54.87 -25.56,-91.69 -7.26,-146.97 2.93,55.75 2.46,72.5 36.28,124.54 33.8,52.09 20.35,148.79 -39.25,186.06 28.53,-52.25 29.19,-108.73 10.23,-163.63"
         style="fill:#040606;fill-opacity:1;fill-rule:nonzero;stroke:none"
         id="path74" />
      <path
         d="m 1259.65,2052.01 c 33.92,100.93 88.35,160.16 201.12,134.22 -122.61,71.37 -173.44,-27.73 -201.12,-134.22"
         style="fill:#040606;fill-opacity:1;fill-rule:nonzero;stroke:none"
         id="path76" />
      <path
         d="m 1662.23,2087.47 c -59.95,9.5 -105.7,35.25 -152.43,73.14 44.39,-64.52 74.71,-77.46 152.43,-73.14"
         style="fill:#040606;fill-opacity:1;fill-rule:nonzero;stroke:none"
         id="path78" />
      <path
         d="m 1387.15,2275.16 c 7.02,-0.2 12.25,4.79 12.48,11.79 0.23,7 -4.65,12.3 -11.67,12.5 -7.02,0.21 -12.24,-4.79 -12.47,-11.79 -0.23,-7 4.64,-12.29 11.66,-12.5"
         style="fill:#040606;fill-opacity:1;fill-rule:nonzero;stroke:none"
         id="path80" />
      <path
         d="m 1386.49,2314.46 c 19.5,-2.53 30.42,-15.94 41.62,-30.54 -30.38,-22.25 -51.74,-27.8 -78.25,2.3 6.41,16.78 17.07,30.76 36.63,28.24 z m -77.84,-27.04 c 15.21,28.93 31.02,44.55 65.13,40.83 -23.07,-10.98 -31.77,-25.94 -32,-51.34 -13.12,-0.37 -19.05,-6.06 -23.34,-18.14 13.28,7.61 15.52,11.14 32.75,5.33 17.19,-5.8 43.22,-10.38 61.59,-0.94 18.36,9.4 37.64,3.28 55.75,8.23 18.2,4.99 37.26,-6.41 33.41,24.83 -3.78,31.17 -42.56,70.99 -78.37,75.6 18.9,-2.96 83.14,-72.28 41.65,-72.92 -41.53,-0.63 -58.03,58.4 -99.87,50.74 -41.9,-7.67 -45.87,-26.6 -56.7,-62.22"
         style="fill:#040606;fill-opacity:1;fill-rule:nonzero;stroke:none"
         id="path82" />
      <path
         d="m 1701.89,2081.89 c -9.12,22.05 -4.74,38.21 9.18,56.95 -33.98,-19.63 -46.1,-30.32 -9.18,-56.95"
         style="fill:#040606;fill-opacity:1;fill-rule:nonzero;stroke:none"
         id="path84" />
      <path
         d="m 1512.89,2258.48 c 16.12,-1.32 31.52,-26.59 49.51,-35.27 16.84,-8.14 44.64,-21.01 40.04,-45.69 4.85,18.65 4.32,33.19 -13.7,45.37 -19.24,12.97 -39.56,26.29 -52.69,46.42 -13.19,20.19 -44.55,-13.51 -58.18,-20.61 13.85,0.79 18.9,11.11 35.02,9.78"
         style="fill:#040606;fill-opacity:1;fill-rule:nonzero;stroke:none"
         id="path86" />
      <path
         d="m 1418.55,2245.27 c -32.28,-16.79 -57.8,-5.12 -86.77,12.93 26,-48.02 45.91,-39.79 86.77,-12.93"
         style="fill:#040606;fill-opacity:1;fill-rule:nonzero;stroke:none"
         id="path88" />
      <path
         d="m 2080.95,1827.01 c -1.73,-9.37 -2.33,-21.83 0.48,-37.39 0,0 -17.26,21.36 -6.72,42.76 2.65,5.42 7.1,10.85 14.1,15.93 -0.54,-0.7 -5.36,-7.76 -7.86,-21.3 z m -19.37,16.31 c -3.06,-6.91 -6.94,-19.62 -5.84,-38.36 0.29,-4.42 0.82,-9.22 1.74,-14.3 0,0 -6.6,8.14 -9.12,19.44 -2.37,10.29 -1.32,23.22 11.2,34.9 1.58,1.48 3.35,2.96 5.3,4.38 -0.22,-0.34 -1.64,-2.33 -3.28,-6.06 z m -30.57,-22.55 c -0.38,-7.36 0.03,-15.97 1.8,-25.85 0,0 -11.05,13.7 -10.04,30.17 0.51,9.3 4.92,19.5 17.42,28.58 -0.63,-0.88 -8.14,-11.8 -9.18,-32.9 z m 59.06,38.46 -10.35,0.53 -41.14,2.08 -10.79,0.54 c -4.2,0.16 -8.11,-2.27 -9.63,-6.18 -2.14,-5.59 -4.7,-14.58 -4.98,-26.38 -0.13,-5.43 0.22,-11.48 1.32,-18.05 1.99,-11.7 11.08,-20.89 22.66,-23.54 11.52,-2.62 27.64,-5.23 45.28,-4.85 0.72,-0.04 1.45,0.03 2.17,0.03 5.34,0.18 9.47,4.6 9.41,9.9 -0.04,5.59 0.06,13.23 0.6,21.49 0.63,10.63 1.92,22.37 4.57,32.25 0.35,1.29 0.38,2.58 0.19,3.81 -0.63,4.42 -4.45,8.11 -9.31,8.37"
         style="fill:#040606;fill-opacity:1;fill-rule:nonzero;stroke:none"
         id="path90" />
      <path
         d="m 2102.63,1175.52 c -0.92,-13.85 -11.86,-25.27 -26.09,-26.4 -9.56,-0.76 -18.34,3.34 -24.01,10.16 4.89,-2.88 10.63,-4.36 16.69,-3.92 12.65,1.01 22.75,10.13 25.43,21.87 0.63,2.74 0.85,5.65 0.63,8.61 -0.48,6.06 -2.81,11.52 -6.44,15.9 7.64,-4.57 13.03,-12.62 13.76,-22.18 0.12,-1.35 0.12,-2.71 0.03,-4.04 z m -13.16,41.62 c -7.32,2.65 -15.46,3.25 -23.63,1.3 -14.48,-3.41 -25.4,-14.11 -29.72,-27.27 -1.99,-5.99 -2.65,-12.55 -1.61,-19.15 0.16,-1.17 0.38,-2.27 0.63,-3.41 1.04,-4.38 2.78,-8.42 5.02,-12.08 9.05,-14.86 26.97,-22.87 44.83,-18.62 16.5,3.92 28.3,17.2 31.18,32.82 l 0.66,8.33 c -0.03,2.87 -0.41,5.77 -1.14,8.71 -3.34,14.1 -13.53,24.8 -26.22,29.37"
         style="fill:#040606;fill-opacity:1;fill-rule:nonzero;stroke:none"
         id="path92" />
      <path
         d="m 2377.46,1245.79 c 8.97,57.97 -38.81,85.3 -38.81,85.3 67.02,-127.24 -50.84,-127.7 -56.56,-127.63 4.67,-0.84 86.67,-13.98 95.37,42.33"
         style="fill:#040606;fill-opacity:1;fill-rule:nonzero;stroke:none"
         id="path94" />
      <path
         d="m 1117.58,1482.81 c 1.54,-2.81 102.26,-182.75 310.53,-217.14 0,0 -189.28,74.84 -310.53,217.14"
         style="fill:#040606;fill-opacity:1;fill-rule:nonzero;stroke:none"
         id="path96" />
      <path
         d="m 2372.78,1174.67 c -11.61,-4.04 -26.85,-8.64 -46.48,-18.11 -13.88,-6.69 -29.97,-15.81 -48.56,-28.84 -98.44,-69.06 -322.43,-98.38 -380.45,-104.97 16.34,23.98 33.38,49.35 50.58,74.24 0,0 0,0.03 0.03,0.06 14.95,21.65 30.04,42.88 44.83,62.57 1.08,-10.69 3.82,-20.92 7.89,-30.41 0,-0.04 0.03,-0.04 0.03,-0.07 21.96,-50.98 83.27,-80.36 141.42,-41.49 65.31,43.64 36.73,159.78 27.64,190.89 l 17.01,3.35 c 38.62,9.34 73.58,19.53 103.87,39.47 0.25,0.09 0.47,0.25 0.69,0.41 3.03,1.99 5.84,3.94 8.42,5.8 14.93,10.76 23.48,19.69 27.96,28.59 8.3,16.53 2.24,32.78 -3.41,59.85 1.93,39.51 2.62,84.34 -34.26,110.53 2.84,41.78 6.94,108.67 -50.27,115.83 4.61,11.7 6.88,23.13 6.94,33.89 26.57,-36.98 47.65,-74.75 59.7,-105.14 28.52,-72 40.29,-96.73 64.24,-155.17 23.89,-58.21 26.03,-96.67 31.81,-126.68 0,-0.1 0,-0.22 0.06,-0.32 0.88,-6.84 1.64,-13.03 2.18,-18.67 v -0.13 c 0.63,-11.96 1.04,-22.21 1.16,-31.08 0.79,-49.47 -7.29,-55.5 -33.03,-64.4 z m -320.25,-72.88 c -50.65,20.13 -39.35,82.03 -38.88,84.59 9.47,11.7 18.81,22.46 27.86,31.96 20.26,21.33 39.22,36.35 55.79,41.21 13.63,3.97 26.91,7.44 39.91,10.6 31.33,-149.12 -33.76,-188.62 -84.68,-168.36 z m -668.59,964.35 c -53.1,-3.06 -56.67,64.97 13.79,68.13 70.45,3.12 119.01,-82.7 187,-99.68 -33.57,-15.05 -50.54,-18.8 -83.58,-44.83 -33.06,-26.03 -126.36,-67.46 -135.89,6.97 -9.5,74.49 81.28,64.36 132.64,66.1 -45.21,13.98 -60.86,6.4 -113.96,3.31 z M 1616.6,847.57 c 8.05,3.282 16.88,7.321 26.25,12.399 29.95,16.09 65.47,42.383 99.9,85.16 54.55,67.811 115.35,135.331 150.69,173.731 0.03,0 0.03,0.06 0.06,0.09 14.99,16.25 25.43,27.29 28.84,30.92 0.22,0.26 0.41,0.44 0.57,0.63 0.25,0.26 0.44,0.45 0.5,0.54 -86.48,-55.59 -170.47,-183.759 -248.88,-236.009 -36.66,-24.359 -75.03,-36.82 -102.16,-38.679 -9.82,-0.352 -17.42,1.32 -21.77,5.546 -3.22,3.063 -4.71,7.512 -3.98,13.543 1.1,9.399 3.44,16.75 6.72,22.707 1.86,3.383 4.01,6.25 6.37,8.782 3.57,3.121 7.29,5.992 11.11,8.699 20.26,14.422 43.01,23.859 58.4,29.191 10.86,3.789 18.02,5.52 18.02,5.52 -60.68,8.211 -139.56,-56.852 -187.99,-68.281 -48.43,-11.418 -60.7,8.183 -60.7,8.183 -27.08,36.598 -43.61,53.098 -49.19,58.238 -0.19,0.192 -0.35,0.352 -0.51,0.512 -0.88,0.778 -1.39,1.258 -1.54,1.418 -0.04,0 -0.07,0 -0.07,0 -6.02,5.262 -13.06,9.238 -21.96,11.32 -48.52,11.36 -68.69,28.15 -99.04,61.21 2.52,-10.06 6.44,-19.09 11.49,-27.23 4.89,-8.01 10.85,-15.17 17.6,-21.698 10.1,-9.793 21.9,-18.051 34.3,-25.371 12.37,-7.321 21.9,-15.493 27.7,-24.961 7.79,-12.75 8.93,-27.801 1.33,-46.289 -114.98,38.648 -366.734,143.469 -412.672,275.199 13.504,-13.03 27.543,-24.8 42.657,-34.58 18.679,-12.15 39.093,-21.24 62.255,-25.9 -20.416,13.5 -40.295,28.39 -59.13,44.64 -35.559,30.51 -67.551,65.69 -92.954,104.94 -11.515,17.8 -21.644,36.38 -30.164,55.76 3.946,-25.59 9.059,-51.47 19.282,-75.22 4.511,-10.57 10.031,-20.67 16.91,-30.17 -53.922,42.25 -96.422,93.65 -125.895,155.74 -29.594,94.15 -34.168,202.28 9.625,293.47 -0.535,-4.89 -0.976,-9.81 -1.324,-14.71 -2.555,-33.35 -1.293,-66.51 9.844,-98.63 -0.535,15.05 -0.317,30.7 0.82,46.45 4.984,70.58 28.871,143.84 92.762,181.2 -47.672,-5.84 -88.879,-23.13 -96.043,-75.85 1.988,14.55 4.48,29.34 7.508,44.27 18.996,92.73 60.488,188.55 139.777,242.98 16.281,-39.16 36.535,-75.76 68.973,-103.9 -12.621,25.59 -22.657,52.41 -30.258,79.95 -1.578,5.71 -3.063,11.39 -4.356,17.2 -18.109,76.86 -17.195,158.67 2.618,234.97 -1.165,-0.76 -2.332,-1.55 -3.469,-2.27 22.433,106.48 68.504,216.5 132.364,281.85 22.43,0.06 40.48,-13.44 62.85,-17.42 -21.65,20.77 -31.21,20.51 -55.38,46.54 -24.13,26.03 -48.87,78 -20,116.37 14.89,27.86 29.47,52.34 34.2,83.73 47.52,-39.62 65.32,-80.48 65.06,-142.14 -0.03,-4.35 -0.41,-8.77 -0.5,-13.15 -4.96,-21.46 6.94,-36.73 19.69,-52.89 -6.69,18.31 -8.49,35.63 -6.76,55.03 0.86,-0.28 1.55,0.6 2.34,0.06 33.51,-21.89 37.77,-58.56 43,-95.63 6.31,32.12 3.73,59.79 -7.03,90.65 7.35,-2.72 14.48,-6.06 21.17,-10 35.91,-20.92 63.07,-24.02 100.97,-5.87 5.52,2.65 10.44,7.16 15.71,10.38 30.07,-10.1 50.7,-28.33 71.65,-51.65 11.3,-18.52 22.22,-37.39 36.16,-53.99 13.98,-16.62 29.57,-31.17 47.33,-43.54 23.35,-16.31 50.48,-29.25 69.42,-50.26 14.23,-15.78 13.59,-31.05 13.69,-50.61 -17.58,14.99 -37.55,32.78 -49.76,49.31 -11.39,-20.85 64.08,-84.74 64.15,-84.81 25.08,-17.7 26.72,-14.04 48.08,-18.52 14.8,-22.34 60.42,-53.01 81.41,-58.28 45.34,-11.36 59.19,-1.23 94.56,17.48 -0.07,0.61 0.66,0.48 1.32,0.26 20.16,-6.72 27.36,-18.9 34.05,-39.29 -0.1,0.13 -0.19,0.32 -0.32,0.42 0.13,-0.35 0.7,-1.74 2.53,-5.78 3.97,-9.15 16.91,-28.93 17.54,-45.5 0.76,-19.28 -3.44,-38.84 -6.82,-58.46 0,0 -4.82,-17.04 -5.49,-39.38 -0.19,-7.1 0.03,-14.73 0.95,-22.56 -70.93,53.01 -111.6,52.19 -204.77,51.9 -96.93,-0.28 -175.59,127 -279.62,93.24 -101.59,-32.94 -102.64,-96.49 -77.84,-186.76 -5.3,42.35 -1.07,77.21 24.27,112.58 -6.12,-56.19 -30.39,-72.44 13.85,-124.69 44.27,-52.25 132.39,-10.92 179.31,23.82 46.92,34.71 86.17,43.76 144.16,48.75 -73.7,-26.03 -84.12,-28.56 -158.3,-80.4 -74.17,-51.87 -216.22,-94.56 -251.43,42.57 0,0 -1.77,-2.25 -3.14,-7.61 -0.07,-0.22 -0.11,-0.43 -0.17,-0.66 -0.01,-0.05 -0.02,-0.1 -0.03,-0.15 -0.74,-2.67 -1.09,-5.2 -1.16,-7.64 -0.66,-8.12 -0.01,-19.75 4.06,-35.73 -54.26,4.26 -90.62,20.02 -122.84,67.75 1.74,-38.21 20.86,-63.57 45.91,-91 -72.25,33.17 -139.96,72.77 -182.054,142.46 27.674,-73.96 70.644,-136.3 129.554,-188.83 -45.59,22.58 -81.56,50.6 -112.74,90.96 24.2,-55.22 59.95,-100.09 100.56,-143.5 -3.72,0.38 -7.29,0.76 -10.76,1.04 -12.27,7.48 -24.61,14.92 -36.92,22.4 2.43,-6.97 4.89,-13.91 7.36,-20.85 -19.44,0.16 -34.68,-1.86 -50.08,-5.4 -8.01,-1.8 -16.06,-4.01 -24.736,-6.59 -11.672,-3.44 -24.484,-7.45 -39.91,-11.83 13.41,2.93 27.133,4.76 41.109,5.58 9.277,0.6 18.647,0.72 28.087,0.38 17.95,-0.63 36.09,-2.75 54.01,-6.31 29.79,-5.9 59.01,-15.75 86.08,-28.81 10.12,-4.89 20,-10.22 29.47,-16 28.8,-17.51 54.04,-38.93 73.35,-63.19 -27.67,-14.27 -51.58,-39.73 -67.14,-59.23 -11.64,-14.61 -18.65,-25.84 -19.06,-26.53 0.04,0 0.07,0.03 0.13,0.03 -17.35,-12.24 -25.78,-21.65 -26.31,-32.28 h -0.6 c -15.56,0.03 -27.48,-8.11 -31.87,-21.77 -6.72,-20.95 7.07,-50.99 31.46,-68.44 4.57,-3.28 11.58,-7.54 20.6,-10.66 19.63,-6.82 48.75,-8.33 82.76,17.01 0.41,0.31 0.82,0.63 1.2,0.97 8.87,-11.89 19.15,-19.91 30.76,-23.94 6.91,-2.4 14.26,-3.38 22.09,-2.97 4.51,0.22 9.02,0.95 13.54,1.99 -0.13,-2.65 0.12,-4.8 0.37,-6.22 0.35,-2.08 9.38,-51.84 43.14,-73.77 4.22,-2.74 8.64,-4.92 13.28,-6.5 8.2,-2.84 16.94,-3.88 25.97,-3.03 -4.55,-8.14 -7.58,-19.24 -6.88,-34.42 1.17,-25.15 13.47,-46.66 33.73,-59 4.26,-2.59 8.71,-4.7 13.38,-6.31 18.86,-6.56 40.76,-5.11 62.03,4.38 -2.94,-3.62 -5.81,-7.32 -8.65,-11.04 -20.51,-26.76 -40.2,-55.28 -71.53,-70.58 -22.15,-10.82 -41.36,-14.52 -58.62,-12.34 -9.21,1.23 -17.89,4.07 -26.19,8.43 -15.96,8.39 -30.54,22.27 -44.8,40.41 7.44,-24.29 17.7,-44.04 29.85,-59.5 3.97,-5.18 8.23,-9.85 12.65,-14.04 57.58,-55.09 143.65,-30.26 175.84,54.77 6.43,16.98 14.51,31.24 23.85,43.35 1.55,1.87 3.31,3.88 5.33,5.97 11.05,11.39 29.47,25.11 56.54,29.31 18.43,2.84 48.91,11.48 83.59,23.57 46.47,16.18 100.52,38.55 143.21,61.52 9.75,5.27 18.93,10.57 27.29,15.81 9.06,5.59 17.42,11.49 24.9,17.89 9.94,8.55 18.23,17.83 24.39,28.02 5.71,9.59 9.59,19.97 11.1,31.3 0.03,0.32 0.1,0.66 0.13,1.01 2.71,20.38 3.03,31.61 3,39.16 1.48,11.04 3.75,23.6 7.19,35.55 1.42,3.35 3.06,7.2 5.05,11.68 2.27,5.11 4.13,10.16 5.77,15.05 19.22,33.03 0.82,64.68 56.58,88.47 7.13,2.3 14.23,5.08 21.14,8.05 0.41,-10.92 0.63,-22.28 0.66,-34.17 0.06,-9.97 0.03,-20.35 -0.16,-31.15 0,-0.28 0,-0.53 -0.03,-0.82 -3.38,0.45 -5.65,0.92 -6.5,1.11 2.24,-0.89 4.39,-1.61 6.5,-2.34 2.52,-0.88 4.89,-1.67 7.26,-2.43 1.07,-0.31 2.14,-0.63 3.21,-0.94 3.98,-1.2 7.7,-2.18 11.27,-2.97 4.86,-1.13 9.37,-1.89 13.53,-2.36 2.43,-0.26 4.67,-0.42 6.91,-0.48 h 0.04 c 8.2,-0.22 14.89,0.89 20.41,3.16 0.47,0.19 0.98,0.41 1.42,0.6 4.73,2.14 8.55,5.14 11.71,8.77 2.87,3.25 5.17,7.07 7.09,11.26 5.4,11.77 7.83,26.6 10.73,41.49 3.79,19.31 8.46,38.81 21.55,51.87 2.02,2.06 4.26,3.95 6.75,5.68 18.65,12.85 33.39,12.91 44.18,6.03 7.16,-4.57 12.59,-12.24 16.28,-21.33 6.91,-17.04 7.6,-39.03 1.89,-54.58 -0.5,-1.49 -1.04,-2.94 -1.58,-4.39 -12.4,-34.14 -21.92,-60.64 -14.89,-96.49 10.22,36.54 21.14,56.86 31.46,66.07 12.43,11.17 23.98,6.03 32.21,-6.21 0.07,-0.06 0.07,-0.06 0.07,-0.06 3.94,-5.87 7.16,-13.35 9.37,-21.46 0.03,-0.06 0.06,-0.16 0.06,-0.25 0.03,-0.13 0.06,-0.25 0.1,-0.41 0.82,-3.63 4.22,-21.81 -4.23,-41.53 -9.47,-22.08 -18.93,-28.39 -25.24,-56.79 0,0 7.03,9.66 16.47,16.94 8.42,6.5 18.77,11.11 27.7,5.15 18.93,-12.62 23.95,-48.94 19.84,-63.93 -0.88,-7.95 -4.79,-13.82 -13.15,-14.95 -7.07,-0.95 -12.53,-1.96 -17.2,-3.25 -9.65,-2.68 -15.84,-6.57 -25.11,-13.95 2.05,0.98 51.58,24.61 60.86,-16.53 9.02,-27.23 -43.79,-59.98 -106.55,-77.94 -4.39,-1.26 -8.77,-2.42 -13.22,-3.53 -3.13,-0.76 -6.28,-1.51 -9.47,-2.18 -7.63,-1.7 -15.3,-3.15 -22.97,-4.32 -1.61,-0.25 -3.22,-0.47 -4.82,-0.69 -5.56,-0.73 -11.08,-1.33 -16.54,-1.8 -39.56,-3.25 -82.19,-35.4 -121.79,-77.65 -4.61,-4.92 -9.18,-10.03 -13.72,-15.24 -1.01,-1.1 -1.99,-2.27 -2.94,-3.41 -9.62,-11.07 -18.93,-22.62 -27.89,-34.36 -27.96,-36.41 -52.69,-74.46 -71.28,-105.48 -50.42,-83.92 -166.72,-214.048 -272.04,-214.08 z m -262.2,1736.5 c 9.12,22.69 26.82,35.27 45.53,49.54 19.91,15.18 31.4,31.83 39.85,55.02 26.48,-39.31 35.41,-71.52 15.21,-115.89 -10.57,-14.29 -22.84,-26.25 -36.38,-37.67 -6.81,5.59 -13.63,11.11 -20.47,16.66 38.36,25.49 48.27,57.36 47.77,102.13 -16.44,-56.47 -30.93,-75.47 -92.07,-75.38 0,0.1 -0.07,0.26 -0.07,0.41 0.26,1.77 -0.06,3.38 0.63,5.18 z m 338.87,-283.24 c 11.49,22.05 22.09,44.49 27.52,68.72 12.18,53.86 12.93,106.11 8.86,160.91 33.76,-35.81 54.05,-74.05 67.24,-121.38 4.61,-16.66 6.41,-31.67 8.8,-49.66 1.39,-10.22 2.18,-26.47 2.5,-37.23 0.53,-17.35 0,-29 -0.41,-48.62 0,-0.16 -2.81,-37.43 -2.91,-37.52 -10.72,-12.24 -21.42,-11.7 -34.17,-16.21 17.23,81.59 16.95,162.36 -10.76,241.55 9.78,-82.12 8.55,-162.71 -23.38,-240.14 -27.92,10.23 -49.41,25.37 -69.63,46.98 10.06,9.85 19.81,19.95 26.34,32.6 z m -195.4,-859.04 c -2.87,18.65 -11.89,52 -40.07,65.38 -11.74,5.58 -24.96,6.84 -39.53,3.88 0.06,0.16 0.12,0.31 0.19,0.5 5.26,16.85 -3.7,31.08 -12.34,44.84 l -0.06,0.06 c -13.13,20.92 -27.23,31.18 -45.66,33.26 -3.09,0.35 -6.22,0.41 -9.37,0.22 -0.66,3.28 -2.24,6.37 -4.61,8.9 -0.6,0.6 -14.61,15.3 -35.08,26.18 -1.52,0.79 -3.06,1.58 -4.58,2.28 -0.91,0.47 -1.83,0.91 -2.71,1.29 -1.17,0.51 -2.31,1.01 -3.44,1.48 -0.54,0.22 -1.11,0.45 -1.64,0.63 -0.6,0.26 -1.2,0.51 -1.8,0.7 -19.34,7.19 -38.05,7.63 -55.15,1.36 9.94,9.52 23.53,19.49 41.77,27.57 8.52,3.76 18.08,7.1 28.78,9.81 1.16,0.29 2.33,0.57 3.53,0.86 12.43,2.87 26.32,4.89 41.81,5.61 0.19,-0.34 0.38,-0.69 0.53,-1.04 0,0 0,0.38 0.04,1.07 18.89,0.89 40.19,-0.12 64.17,-3.59 0,0 77.49,-18.46 119.05,-67.81 0,0 -56.2,16.35 -99.14,-6.81 0,0 109.64,16.28 169.37,-59.42 53.99,-68.4 60.39,-131.13 56.29,-193.6 -10.25,-3.34 -20.35,-6.4 -29.97,-9.02 l -97.09,37.29 c -6.66,14.26 -16.15,23.82 -28.21,28.46 -6.81,2.62 -14.13,3.66 -22.24,3.13 6.91,10.19 9.34,22.4 7.16,36.53 z m 267.97,237.87 c 60.33,-50.95 83.55,-140.75 71.56,-263.9 -2.17,-1.23 -4.35,-2.52 -6.65,-3.75 l -0.1,-0.1 c -9.78,-5.42 -20.54,-10.91 -31.8,-16.28 0,0 -50.93,-22.37 -105.1,-41.55 2.96,41.52 0.38,86.42 -14.52,126.4 l 63.77,33.76 -69.57,-19.63 c -8.14,18.62 -16.69,34.04 -25.24,46.89 v 0.03 l 39.34,26.19 -49,-12.69 c -37.2,48.28 -71.84,52.66 -72.38,69.07 -0.73,22.05 26,-1.48 47.39,41.84 14.93,30.26 44.43,57.8 88.03,48.68 4.7,-0.98 9.59,-2.36 14.64,-4.26 2.31,-0.85 4.61,-1.8 7.01,-2.87 5.77,-2.59 11.77,-5.77 17.95,-9.65 7.89,-4.93 16.12,-10.95 24.67,-18.18 z m 118.92,187.74 c 9.41,18.17 30.04,27.35 50.01,23 l 0.29,-0.06 c 0.91,-8.96 2.84,-17.48 6.5,-23.35 0.03,-0.03 0.03,-0.06 0.06,-0.1 l 0.13,-0.09 22.21,-17.73 c 18.24,-15.78 40.04,-45.69 47.52,-100.84 1.98,-14.61 3.56,-29.66 4.79,-45.66 -13.69,-7.13 -28.08,-14.55 -44.49,-19.85 0,0 -26.03,-10.66 -45.65,-48.68 v -0.03 c -2.84,-5.49 -5.52,-11.52 -7.98,-18.21 -0.92,-2.24 -1.58,-4.19 -2.06,-5.96 -1.38,-3.6 -2.87,-7.54 -4.35,-11.68 -1.8,21.3 -6.85,42.28 -14.8,62.22 -43.45,109.14 -29.53,173.51 -12.18,207.02 z m 62.03,55.44 c 0.07,0.94 0.13,1.89 0.23,2.84 3.25,36.37 16.06,84.71 57.14,118.88 l -1.8,-86.7 c -0.19,-9.15 7.1,-16.69 16.21,-16.79 l 101,-1.23 c 9,-0.13 16.38,6.97 16.66,15.9 l 2.75,84.6 c 0,0 47.55,-43.93 42.56,-95.54 l -18.2,-18.84 c -18.05,-18.68 -43.42,-28.53 -69.39,-26.92 l -48.9,3.03 -66.42,4.11 -32.56,1.98 c 0.03,4.55 0.28,9.5 0.72,14.68 z m 133.53,-300.54 c 0.07,-2.27 0.16,-4.54 0.22,-6.78 -3.18,-3.28 -6.62,-6 -10.19,-8.27 -5.33,-3.37 -10.92,-5.71 -16.44,-7.32 -0.03,0.82 -0.06,1.61 -0.06,2.43 -0.16,6.22 -0.25,12.43 -0.44,18.65 -0.29,12.49 -0.57,24.96 -0.95,37.42 l -0.63,20.95 -0.82,28.59 c -0.09,2.14 -0.25,6.72 -0.41,10.85 -0.09,3.09 -0.19,5.96 -0.19,7.45 0.03,8.1 7.26,15.33 15.78,14.79 8.07,-0.09 14.76,-7.41 14.2,-15.27 l -0.04,-0.53 c -0.09,-3.89 -0.53,-15.02 -0.63,-17.89 -0.12,-6.09 -0.19,-12.18 -0.22,-18.3 -0.16,-22.28 0.19,-44.52 0.82,-66.77 z m 63.74,247.5 c -2.02,-3.25 -4.04,-6.63 -6,-10.23 -3.97,-7.16 -7.85,-15.08 -11.48,-24.1 -3.88,-9.53 -7.45,-20.29 -10.57,-32.53 -0.57,-2.28 -1.14,-4.64 -1.71,-7.07 -1.35,-5.93 -2.61,-12.21 -3.72,-18.9 -1.17,-6.85 -2.24,-13.54 -3.22,-20.16 -1.67,-11.49 -3.09,-22.72 -4.23,-33.89 -0.44,-4.35 -1.01,-18.02 -1.48,-34.77 v -0.19 c -0.16,-6.12 -0.31,-12.65 -0.41,-19.31 -1.17,-14.61 -4.29,-26.31 -8.74,-35.68 -0.31,5.68 -0.6,11.29 -0.88,16.94 -0.6,12.24 -1.04,24.48 -1.36,36.76 -0.16,6.84 -0.28,13.69 -0.35,20.54 0.04,3.69 0.1,14.01 0.13,17.89 v 0.38 c 0.51,12.96 -10.85,24.54 -23.79,24.26 -14.1,0.63 -26.6,-12.31 -25.21,-26.5 v -3.1 l 0.03,-5.26 0.03,-7.1 c 0,-10.92 0.03,-22.12 0,-33.45 -0.03,-15.74 -0.06,-31.77 -0.19,-47.71 -0.03,-9.15 -0.12,-18.2 -0.22,-27.23 0,-0.44 -0.03,-0.94 0,-1.38 l -0.03,-0.57 c -3.19,-0.35 -6.28,-0.51 -9.15,-0.47 -0.69,0 -1.39,-0.04 -2.11,0 l 0.03,1.54 c 0.28,10.73 0.44,21.05 0.54,30.99 0.15,13.94 0.22,27.13 0.06,39.59 -0.16,14.14 -0.63,27.36 -1.39,39.82 -3.57,58.69 -14.48,99.89 -41.62,132.17 -9.08,10.86 -20.06,20.76 -33.22,29.92 -3.91,2.71 -6.41,7 -6.85,11.76 -0.16,1.52 -0.28,3.32 -0.41,5.28 -0.09,1.29 -0.16,2.64 -0.25,4.06 l 55.69,-2.43 88.69,-3.88 2.08,-0.12 c 28.78,-1.23 56.73,9.68 76.96,30.13 l 6.25,6.34 c -7.04,-17.51 -19.44,-31.93 -31.9,-52.34 z m 38.3,-118.01 c -11.51,2.94 -22.08,3.47 -31.77,1.64 -15.02,-2.02 -29.6,-15.14 -29.6,-15.14 -2.46,-2.27 -4.82,-4.8 -7.06,-7.54 0.53,5.08 1.16,10.19 1.89,15.33 l 7.63,40.58 c 0.79,3.43 1.64,6.91 2.53,10.38 19.24,-12.09 38.27,-27.64 56.38,-45.25 z m 231.59,-387.96 c -0.15,0.63 -0.25,0.94 -0.25,0.94 -9.12,37.3 -28.58,88.32 -75.53,203.01 -0.13,0.25 -0.19,0.54 -0.32,0.82 -65.15,159.12 -197.96,257.81 -202.12,260.87 -0.03,0.03 -0.1,0.07 -0.1,0.07 l 11.43,23.91 c 2.61,4.32 5.74,8.84 9.4,13.28 1.13,1.46 2.36,2.88 3.59,4.23 17.04,18.68 49.98,56.39 31.15,111.35 -13.07,38.15 -37.99,62.73 -52.06,74.21 -4.23,3.44 -10.51,0.5 -10.7,-4.95 l -2.87,-91.85 c -0.16,-5.4 -4.61,-9.66 -10,-9.56 l -93.87,1.51 c -5.46,0.1 -9.81,4.58 -9.72,10.07 l 1.77,87.78 c 0.06,5.17 -5.65,8.48 -10.07,5.74 -19.21,-12.02 -59.63,-46.04 -67.99,-123.46 0,0 -0.22,-2.02 -0.54,-5.37 -58.87,18.84 -123.75,51.21 -180.32,63.04 30.86,10.13 54.84,11.55 78,-2.02 0,0 0.03,-0.03 0.06,-0.09 0.03,0 0.1,-0.06 0.19,-0.09 4.2,-2.47 8.36,-5.4 12.53,-8.84 0,-0.06 0,-0.09 0.06,-0.09 14.04,-8.93 35.24,-19.22 40.83,-3.86 0.03,0.07 0.06,0.16 0.06,0.26 0.22,0.53 0.38,1.14 0.54,1.73 0.16,0.57 0.28,1.14 0.47,1.71 0.06,0.28 0.13,0.57 0.25,0.82 0.07,0.28 0.13,0.54 0.26,0.79 14.83,51.46 18.11,99.1 4.73,152.39 -4.58,18.3 -14.48,32.5 -23.07,48.78 -3.62,26.95 -12.68,43.95 -34.36,61.31 0.22,3.72 2.09,29.94 2.09,30 0.19,20.16 0.75,33.16 -0.1,50.68 -0.6,11.73 -1.29,29.05 -3.03,39.78 -12.65,77.46 -36.79,142.4 -96.39,195.22 -11.74,10.38 -30.04,16.72 -44.3,22.78 0.25,-2.78 4.36,-22.37 4.42,-22.53 13.16,-79.77 9.24,-149.72 -17.35,-224.49 -12.18,-22.28 -20.7,-47.24 -49.92,-48.34 -9.91,-0.38 -17.23,12.18 -23.69,18.39 3.34,98.67 -72.07,106.62 -129.21,166.28 -14.07,14.74 -20.7,31.3 -31.96,47.26 11.96,14.71 25.65,21.87 33.79,40.49 34.2,77.77 12.78,116.93 -47.23,172.37 -8.33,7.73 -19.41,15.39 -28.27,21.52 0.69,-3.95 8.17,-31.24 8.17,-31.3 4.26,-43.42 -16.76,-56.07 -46.67,-78.44 -20.35,-16.79 -33.7,-33.83 -39.78,-59.89 -22.25,-15.52 -40.77,-26.5 -68.06,-17.13 -15.12,5.17 -28.43,16.22 -43.95,20.41 -13.16,3.6 -25.69,5.27 -39.16,5.53 0.41,15.39 3.47,29.53 0.16,45.14 -10.86,50.52 -34.49,86.77 -75.82,118.01 -17.89,13.54 -39.82,17.83 -59.76,27.86 4.64,-17.92 8.39,-17.26 13.31,-39.41 4.99,-22.15 -6.4,-63.8 -25.78,-83.61 -24.51,-53.55 -18.71,-92.61 11.24,-141.86 -105.513,-135.74 -165.525,-305.2 -158.36,-477.63 0.031,-3.7 0.093,-7.42 0.187,-11.08 -14.859,-12.21 -28.523,-25.11 -41.301,-38.93 -19.215,-19.19 -36.918,-39.82 -52.41,-61.85 -22.621,-32.15 -40.699,-67.33 -52.25,-105.35 -10.633,-34.77 -15.805,-72 -14.195,-111.53 -60.235,-67.53 -58.75,-212.73 -47.141,-268.23 30.891,-147.63 83.11,-210.7 191.774,-280.87 51.839,-127.92 219.226,-211.18 332.686,-251.981 19.59,-7.039 35.65,-12.867 49.25,-17.918 47.11,-17.641 65.09,-26.691 100.59,-50.199 13.57,-8.992 29.78,-20.07 51.18,-34.582 93.3,-63.231 60.29,-9.02 162.65,1.23 102.35,10.219 190.22,32.75 263.05,115.102 15.96,18.019 34.42,43.226 54.3,71.808 0.19,-0.031 0.38,-0.089 0.56,-0.148 67.53,2.238 274.13,16.338 408.45,105.818 0.03,0.03 0.06,0.03 0.09,0.06 21.96,15.31 40.7,24.58 56.73,30.45 57.96,21.33 80.08,-1.42 87.49,57.05 9.57,75.6 -14.67,165.52 -17.51,175.62"
         style="fill:#040606;fill-opacity:1;fill-rule:nonzero;stroke:none"
         id="path98" />
      <path
         d="m 1333.87,1586.99 c 0,0 -49.63,52.55 -95.92,24.8 -46.3,-27.76 -82.6,-50.05 -55.64,-54.66 26.96,-4.6 33.43,-17.95 36.45,-41.21 0,0 -17.61,31.5 -63.58,31.6 -45.97,0.1 11.37,-113.41 92.7,-52.82 0,0 -27.41,44.42 18.86,68.01 46.27,23.59 67.13,24.28 67.13,24.28"
         style="fill:#b4b5b4;fill-opacity:1;fill-rule:nonzero;stroke:none"
         id="path100" />
      <path
         d="m 1391.47,1547.29 c -10.51,16.73 -20.38,23.87 -32.98,25.3 -5.6,0.63 -11.26,-0.12 -16.64,-1.8 -9.16,-2.86 -26.69,-8.86 -38.24,-16.13 0,0 23.02,-15.93 29.62,-56.29 0,0 -15.76,28.95 -38.5,42.4 -7.79,4.61 -17.75,3.74 -24.47,-2.33 -8.2,-7.41 -14.6,-21.05 1.31,-44.04 27.47,-39.68 60.44,-17.82 101.42,-0.32 40.98,17.49 31.77,32.07 18.48,53.21"
         style="fill:#b4b5b4;fill-opacity:1;fill-rule:nonzero;stroke:none"
         id="path102" />
      <path
         d="m 1480.84,1439.17 c -4.39,28.49 -22.83,81.94 -91.27,41.73 0,0 23.63,-30.93 21.3,-65.03 0,0 -14.23,33.34 -34.95,51.92 -4.31,3.87 -10.4,5.06 -15.91,3.28 -8.1,-2.63 -18.56,-7.9 -16.91,-17.38 2.65,-15.2 21.27,-80.36 71.66,-67.72 50.4,12.63 70.46,24.71 66.08,53.2"
         style="fill:#b4b5b4;fill-opacity:1;fill-rule:nonzero;stroke:none"
         id="path104" />
      <path
         d="m 1526.35,1364.66 c -10.6,24.3 -29,30.7 -64.75,14.56 0,0 23.77,-32.05 16.59,-75.57 0,0 -4.42,38.39 -25.99,63.88 -3.66,4.33 -9.74,5.83 -15.01,3.74 -8.54,-3.39 -19.49,-12.58 -18.34,-37.49 1.86,-40.31 40.4,-66.38 85.68,-45.62 45.29,20.76 32.41,52.2 21.82,76.5"
         style="fill:#b4b5b4;fill-opacity:1;fill-rule:nonzero;stroke:none"
         id="path106" />
      <path
         d="m 2375.55,1166.41 c 0,0 -50.48,-6.31 -104.12,-34.71 -53.64,-28.4 -85.19,-22.09 -85.19,-22.09 0,0 54.05,9.42 88.55,39.42 34.51,30 88.14,36.31 103.92,67.86 0,0 -9.47,-25.24 -37.86,-44.17 -28.4,-18.93 37.86,0 34.7,-6.31"
         style="fill:#040606;fill-opacity:1;fill-rule:nonzero;stroke:none"
         id="path108" />
    </g>
  </g>
</svg>
